<svg width="80" height="33" viewBox="0 0 80 33" fill="none" xmlns="http://www.w3.org/2000/svg">
<g filter="url(#filter0_d_35_29)">
<rect x="5" y="1" width="18" height="18" rx="2" fill="#1A1B25" fill-opacity="0.6" stroke="#1A1B25" stroke-width="2"/>
<rect x="9" y="5" width="20" height="20" rx="3" fill="#1A1B25"/>
<path d="M32.008 18V7.612H34.192V18H32.008ZM36.2189 18V10.468H38.4029V18H36.2189ZM37.3109 9.418C36.9096 9.418 36.5829 9.30133 36.3309 9.068C36.0789 8.83467 35.9529 8.54533 35.9529 8.2C35.9529 7.85467 36.0789 7.56533 36.3309 7.332C36.5829 7.09867 36.9096 6.982 37.3109 6.982C37.7123 6.982 38.0389 7.094 38.2909 7.318C38.5429 7.53267 38.6689 7.81267 38.6689 8.158C38.6689 8.522 38.5429 8.82533 38.2909 9.068C38.0483 9.30133 37.7216 9.418 37.3109 9.418ZM45.0079 10.356C45.6052 10.356 46.1372 10.4773 46.6039 10.72C47.0799 10.9533 47.4532 11.3173 47.7239 11.812C47.9945 12.2973 48.1299 12.9227 48.1299 13.688V18H45.9459V14.024C45.9459 13.4173 45.8105 12.9693 45.5399 12.68C45.2785 12.3907 44.9052 12.246 44.4199 12.246C44.0745 12.246 43.7619 12.3207 43.4819 12.47C43.2112 12.61 42.9965 12.8293 42.8379 13.128C42.6885 13.4267 42.6139 13.8093 42.6139 14.276V18H40.4299V10.468H42.5159V12.554L42.1239 11.924C42.3945 11.42 42.7819 11.0327 43.2859 10.762C43.7899 10.4913 44.3639 10.356 45.0079 10.356ZM53.9023 18.112C53.0436 18.112 52.2876 17.944 51.6343 17.608C50.9903 17.272 50.4909 16.8147 50.1363 16.236C49.7816 15.648 49.6043 14.9807 49.6043 14.234C49.6043 13.478 49.7769 12.8107 50.1223 12.232C50.4769 11.644 50.9576 11.1867 51.5643 10.86C52.1709 10.524 52.8569 10.356 53.6223 10.356C54.3596 10.356 55.0223 10.5147 55.6103 10.832C56.2076 11.14 56.6789 11.588 57.0243 12.176C57.3696 12.7547 57.5423 13.45 57.5423 14.262C57.5423 14.346 57.5376 14.444 57.5283 14.556C57.5189 14.6587 57.5096 14.7567 57.5003 14.85H51.3823V13.576H56.3522L55.5123 13.954C55.5123 13.562 55.4329 13.2213 55.2743 12.932C55.1156 12.6427 54.8963 12.4187 54.6163 12.26C54.3363 12.092 54.0096 12.008 53.6363 12.008C53.2629 12.008 52.9316 12.092 52.6423 12.26C52.3623 12.4187 52.1429 12.6473 51.9843 12.946C51.8256 13.2353 51.7463 13.5807 51.7463 13.982V14.318C51.7463 14.7287 51.8349 15.0927 52.0123 15.41C52.1989 15.718 52.4556 15.956 52.7823 16.124C53.1183 16.2827 53.5103 16.362 53.9583 16.362C54.3596 16.362 54.7096 16.3013 55.0083 16.18C55.3163 16.0587 55.5963 15.8767 55.8483 15.634L57.0103 16.894C56.6649 17.286 56.2309 17.5893 55.7083 17.804C55.1856 18.0093 54.5836 18.112 53.9023 18.112ZM63.4483 18.112C62.7856 18.112 62.2163 17.972 61.7403 17.692C61.2643 17.412 60.9003 16.9873 60.6483 16.418C60.3963 15.8393 60.2703 15.1113 60.2703 14.234C60.2703 13.3473 60.4009 12.6193 60.6623 12.05C60.9329 11.4807 61.3063 11.056 61.7823 10.776C62.2583 10.496 62.8136 10.356 63.4483 10.356C64.1576 10.356 64.7923 10.5147 65.3523 10.832C65.9216 11.1493 66.3696 11.5973 66.6963 12.176C67.0323 12.7547 67.2003 13.4407 67.2003 14.234C67.2003 15.018 67.0323 15.6993 66.6963 16.278C66.3696 16.8567 65.9216 17.3093 65.3523 17.636C64.7923 17.9533 64.1576 18.112 63.4483 18.112ZM58.9963 18V7.612H61.1803V11.994L61.0403 14.22L61.0823 16.46V18H58.9963ZM63.0703 16.32C63.4343 16.32 63.7563 16.236 64.0363 16.068C64.3256 15.9 64.5543 15.662 64.7223 15.354C64.8996 15.0367 64.9883 14.6633 64.9883 14.234C64.9883 13.7953 64.8996 13.422 64.7223 13.114C64.5543 12.806 64.3256 12.568 64.0363 12.4C63.7563 12.232 63.4343 12.148 63.0703 12.148C62.7063 12.148 62.3796 12.232 62.0903 12.4C61.8009 12.568 61.5723 12.806 61.4043 13.114C61.2363 13.422 61.1523 13.7953 61.1523 14.234C61.1523 14.6633 61.2363 15.0367 61.4043 15.354C61.5723 15.662 61.8009 15.9 62.0903 16.068C62.3796 16.236 62.7063 16.32 63.0703 16.32ZM69.4092 20.828C69.0172 20.828 68.6299 20.7673 68.2472 20.646C67.8646 20.5247 67.5519 20.3567 67.3092 20.142L68.1072 18.588C68.2752 18.7373 68.4666 18.854 68.6812 18.938C68.9052 19.022 69.1246 19.064 69.3392 19.064C69.6472 19.064 69.8899 18.9893 70.0672 18.84C70.2539 18.7 70.4219 18.462 70.5712 18.126L70.9632 17.202L71.1312 16.964L73.8332 10.468H75.9332L72.5312 18.462C72.2886 19.0687 72.0086 19.5447 71.6912 19.89C71.3832 20.2353 71.0379 20.478 70.6552 20.618C70.2819 20.758 69.8666 20.828 69.4092 20.828ZM70.6972 18.294L67.3372 10.468H69.5912L72.1952 16.768L70.6972 18.294Z" fill="#1A1B25"/>
</g>
<defs>
<filter id="filter0_d_35_29" x="0" y="0" width="80" height="33" filterUnits="userSpaceOnUse" color-interpolation-filters="sRGB">
<feFlood flood-opacity="0" result="BackgroundImageFix"/>
<feColorMatrix in="SourceAlpha" type="matrix" values="0 0 0 0 0 0 0 0 0 0 0 0 0 0 0 0 0 0 127 0" result="hardAlpha"/>
<feOffset dy="4"/>
<feGaussianBlur stdDeviation="2"/>
<feComposite in2="hardAlpha" operator="out"/>
<feColorMatrix type="matrix" values="0 0 0 0 0 0 0 0 0 0 0 0 0 0 0 0 0 0 0.25 0"/>
<feBlend mode="normal" in2="BackgroundImageFix" result="effect1_dropShadow_35_29"/>
<feBlend mode="normal" in="SourceGraphic" in2="effect1_dropShadow_35_29" result="shape"/>
</filter>
</defs>
</svg>
