<svg width="54" height="28" viewBox="0 0 54 28" fill="none" xmlns="http://www.w3.org/2000/svg">
<g filter="url(#filter0_d_84_88)">
<rect x="4" width="46" height="20" rx="10" fill="#7AC74F"/>
<path d="M16.4553 15V4.612H18.6393V15H16.4553ZM20.6662 15V7.468H22.8502V15H20.6662ZM21.7582 6.418C21.3569 6.418 21.0302 6.30133 20.7782 6.068C20.5262 5.83467 20.4002 5.54533 20.4002 5.2C20.4002 4.85467 20.5262 4.56533 20.7782 4.332C21.0302 4.09867 21.3569 3.982 21.7582 3.982C22.1595 3.982 22.4862 4.094 22.7382 4.318C22.9902 4.53267 23.1162 4.81267 23.1162 5.158C23.1162 5.522 22.9902 5.82533 22.7382 6.068C22.4955 6.30133 22.1689 6.418 21.7582 6.418ZM27.9571 15.112C27.0705 15.112 26.3798 14.888 25.8851 14.44C25.3905 13.9827 25.1431 13.306 25.1431 12.41V5.802H27.3271V12.382C27.3271 12.6993 27.4111 12.9467 27.5791 13.124C27.7471 13.292 27.9758 13.376 28.2651 13.376C28.6105 13.376 28.9045 13.2827 29.1471 13.096L29.7351 14.636C29.5111 14.7947 29.2405 14.916 28.9231 15C28.6151 15.0747 28.2931 15.112 27.9571 15.112ZM23.9811 9.316V7.636H29.2031V9.316H23.9811ZM34.4667 15.112C33.608 15.112 32.852 14.944 32.1987 14.608C31.5547 14.272 31.0554 13.8147 30.7007 13.236C30.346 12.648 30.1687 11.9807 30.1687 11.234C30.1687 10.478 30.3414 9.81067 30.6867 9.232C31.0414 8.644 31.522 8.18667 32.1287 7.86C32.7354 7.524 33.4214 7.356 34.1867 7.356C34.924 7.356 35.5867 7.51467 36.1747 7.832C36.772 8.14 37.2434 8.588 37.5887 9.176C37.934 9.75467 38.1067 10.45 38.1067 11.262C38.1067 11.346 38.102 11.444 38.0927 11.556C38.0834 11.6587 38.074 11.7567 38.0647 11.85H31.9467V10.576H36.9167L36.0767 10.954C36.0767 10.562 35.9974 10.2213 35.8387 9.932C35.68 9.64267 35.4607 9.41867 35.1807 9.26C34.9007 9.092 34.574 9.008 34.2007 9.008C33.8274 9.008 33.496 9.092 33.2067 9.26C32.9267 9.41867 32.7074 9.64733 32.5487 9.946C32.39 10.2353 32.3107 10.5807 32.3107 10.982V11.318C32.3107 11.7287 32.3994 12.0927 32.5767 12.41C32.7634 12.718 33.02 12.956 33.3467 13.124C33.6827 13.2827 34.0747 13.362 34.5227 13.362C34.924 13.362 35.274 13.3013 35.5727 13.18C35.8807 13.0587 36.1607 12.8767 36.4127 12.634L37.5747 13.894C37.2294 14.286 36.7954 14.5893 36.2727 14.804C35.75 15.0093 35.148 15.112 34.4667 15.112Z" fill="white"/>
</g>
<defs>
<filter id="filter0_d_84_88" x="0" y="0" width="54" height="28" filterUnits="userSpaceOnUse" color-interpolation-filters="sRGB">
<feFlood flood-opacity="0" result="BackgroundImageFix"/>
<feColorMatrix in="SourceAlpha" type="matrix" values="0 0 0 0 0 0 0 0 0 0 0 0 0 0 0 0 0 0 127 0" result="hardAlpha"/>
<feOffset dy="4"/>
<feGaussianBlur stdDeviation="2"/>
<feComposite in2="hardAlpha" operator="out"/>
<feColorMatrix type="matrix" values="0 0 0 0 0 0 0 0 0 0 0 0 0 0 0 0 0 0 0.25 0"/>
<feBlend mode="normal" in2="BackgroundImageFix" result="effect1_dropShadow_84_88"/>
<feBlend mode="normal" in="SourceGraphic" in2="effect1_dropShadow_84_88" result="shape"/>
</filter>
</defs>
</svg>
