<svg width="96" height="44" viewBox="0 0 96 44" fill="none" xmlns="http://www.w3.org/2000/svg">
<g filter="url(#filter0_d_143_49)">
<rect x="10" y="10" width="76" height="24" rx="8" fill="white"/>
</g>
<g filter="url(#filter1_d_143_49)">
<rect x="14" y="14" width="32" height="16" rx="4" fill="#91C8FF"/>
</g>
<path d="M17.8736 25V18H22.2836V18.98H18.9536V20.99H22.0036V21.97H18.9536V24.02H22.3336V25H17.8736ZM23.4895 25V20.07H24.4995V20.81H24.6595C24.7528 20.61 24.9195 20.4233 25.1595 20.25C25.3995 20.0767 25.7562 19.99 26.2295 19.99C26.6028 19.99 26.9328 20.0733 27.2195 20.24C27.5128 20.4067 27.7428 20.6433 27.9095 20.95C28.0762 21.25 28.1595 21.6133 28.1595 22.04V25H27.1295V22.12C27.1295 21.6933 27.0228 21.38 26.8095 21.18C26.5962 20.9733 26.3028 20.87 25.9295 20.87C25.5028 20.87 25.1595 21.01 24.8995 21.29C24.6462 21.57 24.5195 21.9767 24.5195 22.51V25H23.4895ZM31.3551 25C31.0551 25 30.8151 24.91 30.6351 24.73C30.4618 24.55 30.3751 24.31 30.3751 24.01V20.94H29.0151V20.07H30.3751V18.44H31.4051V20.07H32.8751V20.94H31.4051V23.83C31.4051 24.03 31.4985 24.13 31.6851 24.13H32.7151V25H31.3551ZM36.1694 25.14C35.6694 25.14 35.2327 25.0367 34.8594 24.83C34.4861 24.6167 34.1927 24.32 33.9794 23.94C33.7727 23.5533 33.6694 23.1067 33.6694 22.6V22.48C33.6694 21.9667 33.7727 21.52 33.9794 21.14C34.1861 20.7533 34.4727 20.4567 34.8394 20.25C35.2127 20.0367 35.6427 19.93 36.1294 19.93C36.6027 19.93 37.0161 20.0367 37.3694 20.25C37.7294 20.4567 38.0094 20.7467 38.2094 21.12C38.4094 21.4933 38.5094 21.93 38.5094 22.43V22.82H34.7194C34.7327 23.2533 34.8761 23.6 35.1494 23.86C35.4294 24.1133 35.7761 24.24 36.1894 24.24C36.5761 24.24 36.8661 24.1533 37.0594 23.98C37.2594 23.8067 37.4127 23.6067 37.5194 23.38L38.3694 23.82C38.2761 24.0067 38.1394 24.2033 37.9594 24.41C37.7861 24.6167 37.5561 24.79 37.2694 24.93C36.9827 25.07 36.6161 25.14 36.1694 25.14ZM34.7294 22.03H37.4594C37.4327 21.6567 37.2994 21.3667 37.0594 21.16C36.8194 20.9467 36.5061 20.84 36.1194 20.84C35.7327 20.84 35.4161 20.9467 35.1694 21.16C34.9294 21.3667 34.7827 21.6567 34.7294 22.03ZM39.7493 25V20.07H40.7593V20.65H40.9193C40.9993 20.4433 41.1259 20.2933 41.2993 20.2C41.4793 20.1 41.6993 20.05 41.9593 20.05H42.5493V20.98H41.9193C41.5859 20.98 41.3126 21.0733 41.0993 21.26C40.8859 21.44 40.7793 21.72 40.7793 22.1V25H39.7493Z" fill="#2B6CA3"/>
<path d="M50.1156 25C49.8556 25 49.6589 24.9333 49.5256 24.8C49.3989 24.6667 49.3356 24.48 49.3356 24.24V20.68H47.7756V20.14H49.3356V18.32H49.9356V20.14H51.6356V20.68H49.9356V24.16C49.9356 24.36 50.0356 24.46 50.2356 24.46H51.3756V25H50.1156ZM55.0189 25.14C54.5256 25.14 54.0923 25.0367 53.7189 24.83C53.3523 24.6167 53.0656 24.3233 52.8589 23.95C52.6589 23.57 52.5589 23.13 52.5589 22.63V22.51C52.5589 22.01 52.6589 21.5733 52.8589 21.2C53.0656 20.82 53.3523 20.5267 53.7189 20.32C54.0923 20.1067 54.5256 20 55.0189 20C55.5123 20 55.9423 20.1067 56.3089 20.32C56.6823 20.5267 56.9689 20.82 57.1689 21.2C57.3756 21.5733 57.4789 22.01 57.4789 22.51V22.63C57.4789 23.13 57.3756 23.57 57.1689 23.95C56.9689 24.3233 56.6823 24.6167 56.3089 24.83C55.9423 25.0367 55.5123 25.14 55.0189 25.14ZM55.0189 24.6C55.5923 24.6 56.0456 24.42 56.3789 24.06C56.7123 23.6933 56.8789 23.21 56.8789 22.61V22.53C56.8789 21.93 56.7123 21.45 56.3789 21.09C56.0456 20.7233 55.5923 20.54 55.0189 20.54C54.4523 20.54 53.9989 20.7233 53.6589 21.09C53.3256 21.45 53.1589 21.93 53.1589 22.53V22.61C53.1589 23.21 53.3256 23.6933 53.6589 24.06C53.9989 24.42 54.4523 24.6 55.0189 24.6ZM63.5082 25.14C62.9216 25.14 62.4182 25 61.9982 24.72C61.5849 24.44 61.3316 23.9767 61.2382 23.33L61.8282 23.22C61.8816 23.5733 61.9882 23.8533 62.1482 24.06C62.3149 24.26 62.5149 24.4033 62.7482 24.49C62.9882 24.5767 63.2416 24.62 63.5082 24.62C63.9082 24.62 64.2282 24.54 64.4682 24.38C64.7149 24.2133 64.8382 23.9867 64.8382 23.7C64.8382 23.4067 64.7216 23.2033 64.4882 23.09C64.2616 22.9767 63.9582 22.8867 63.5782 22.82L63.1182 22.74C62.8116 22.6867 62.5349 22.6067 62.2882 22.5C62.0416 22.3867 61.8449 22.2367 61.6982 22.05C61.5582 21.8633 61.4882 21.63 61.4882 21.35C61.4882 20.93 61.6516 20.6 61.9782 20.36C62.3116 20.12 62.7516 20 63.2982 20C63.8516 20 64.2949 20.1267 64.6282 20.38C64.9682 20.6267 65.1816 20.9867 65.2682 21.46L64.7082 21.58C64.6416 21.1933 64.4816 20.92 64.2282 20.76C63.9816 20.6 63.6716 20.52 63.2982 20.52C62.9316 20.52 62.6382 20.59 62.4182 20.73C62.1982 20.87 62.0882 21.0767 62.0882 21.35C62.0882 21.6167 62.1882 21.8133 62.3882 21.94C62.5882 22.06 62.8616 22.15 63.2082 22.21L63.6682 22.29C64.0016 22.3433 64.3016 22.4233 64.5682 22.53C64.8349 22.63 65.0449 22.7733 65.1982 22.96C65.3582 23.1467 65.4382 23.3933 65.4382 23.7C65.4382 24.16 65.2649 24.5167 64.9182 24.77C64.5716 25.0167 64.1016 25.14 63.5082 25.14ZM68.3124 25.14C67.9724 25.14 67.6624 25.0833 67.3824 24.97C67.109 24.85 66.8924 24.6767 66.7324 24.45C66.5724 24.2233 66.4924 23.95 66.4924 23.63C66.4924 23.3033 66.5724 23.0333 66.7324 22.82C66.8924 22.6067 67.109 22.4467 67.3824 22.34C67.6557 22.2333 67.959 22.18 68.2924 22.18H70.0724V21.79C70.0724 21.3967 69.959 21.09 69.7324 20.87C69.5057 20.65 69.1757 20.54 68.7424 20.54C68.3157 20.54 67.9757 20.6467 67.7224 20.86C67.4757 21.0667 67.309 21.3467 67.2224 21.7L66.6424 21.53C66.7224 21.2433 66.849 20.9867 67.0224 20.76C67.1957 20.5267 67.4257 20.3433 67.7124 20.21C67.999 20.07 68.3424 20 68.7424 20C69.3557 20 69.829 20.16 70.1624 20.48C70.5024 20.8 70.6724 21.2467 70.6724 21.82V24.18C70.6724 24.38 70.7657 24.48 70.9524 24.48H71.4224V25H70.7824C70.5757 25 70.4124 24.94 70.2924 24.82C70.1724 24.6933 70.1124 24.5233 70.1124 24.31V24.24H70.0124C69.9257 24.3867 69.8124 24.53 69.6724 24.67C69.539 24.81 69.3624 24.9233 69.1424 25.01C68.9224 25.0967 68.6457 25.14 68.3124 25.14ZM68.3524 24.6C68.8657 24.6 69.279 24.4467 69.5924 24.14C69.9124 23.8267 70.0724 23.3867 70.0724 22.82V22.7H68.3024C67.9557 22.7 67.6657 22.7767 67.4324 22.93C67.2057 23.0767 67.0924 23.3067 67.0924 23.62C67.0924 23.9333 67.209 24.1767 67.4424 24.35C67.6824 24.5167 67.9857 24.6 68.3524 24.6ZM73.6209 25L71.8009 20.14H72.4409L74.0409 24.54H74.1609L75.7609 20.14H76.4009L74.5809 25H73.6209ZM79.6679 25.14C79.1679 25.14 78.7312 25.0367 78.3579 24.83C77.9912 24.6167 77.7045 24.32 77.4979 23.94C77.2912 23.56 77.1879 23.1233 77.1879 22.63V22.51C77.1879 22.01 77.2912 21.5733 77.4979 21.2C77.7045 20.82 77.9879 20.5267 78.3479 20.32C78.7145 20.1067 79.1312 20 79.5979 20C80.0512 20 80.4512 20.0967 80.7979 20.29C81.1512 20.4767 81.4279 20.75 81.6279 21.11C81.8279 21.4633 81.9279 21.8867 81.9279 22.38V22.7H77.7879C77.8079 23.3067 77.9912 23.7767 78.3379 24.11C78.6912 24.4367 79.1345 24.6 79.6679 24.6C80.1212 24.6 80.4712 24.4967 80.7179 24.29C80.9712 24.0833 81.1645 23.83 81.2979 23.53L81.8379 23.77C81.7379 23.99 81.5979 24.2067 81.4179 24.42C81.2445 24.6267 81.0179 24.8 80.7379 24.94C80.4579 25.0733 80.1012 25.14 79.6679 25.14ZM77.7979 22.18H81.3179C81.2912 21.6533 81.1212 21.25 80.8079 20.97C80.4945 20.6833 80.0912 20.54 79.5979 20.54C79.1112 20.54 78.7079 20.6833 78.3879 20.97C78.0679 21.25 77.8712 21.6533 77.7979 22.18Z" fill="#2B6CA3"/>
<defs>
<filter id="filter0_d_143_49" x="0" y="0" width="96" height="44" filterUnits="userSpaceOnUse" color-interpolation-filters="sRGB">
<feFlood flood-opacity="0" result="BackgroundImageFix"/>
<feColorMatrix in="SourceAlpha" type="matrix" values="0 0 0 0 0 0 0 0 0 0 0 0 0 0 0 0 0 0 127 0" result="hardAlpha"/>
<feOffset/>
<feGaussianBlur stdDeviation="5"/>
<feComposite in2="hardAlpha" operator="out"/>
<feColorMatrix type="matrix" values="0 0 0 0 0 0 0 0 0 0 0 0 0 0 0 0 0 0 0.1 0"/>
<feBlend mode="normal" in2="BackgroundImageFix" result="effect1_dropShadow_143_49"/>
<feBlend mode="normal" in="SourceGraphic" in2="effect1_dropShadow_143_49" result="shape"/>
</filter>
<filter id="filter1_d_143_49" x="4" y="4" width="52" height="36" filterUnits="userSpaceOnUse" color-interpolation-filters="sRGB">
<feFlood flood-opacity="0" result="BackgroundImageFix"/>
<feColorMatrix in="SourceAlpha" type="matrix" values="0 0 0 0 0 0 0 0 0 0 0 0 0 0 0 0 0 0 127 0" result="hardAlpha"/>
<feOffset/>
<feGaussianBlur stdDeviation="5"/>
<feComposite in2="hardAlpha" operator="out"/>
<feColorMatrix type="matrix" values="0 0 0 0 0 0 0 0 0 0 0 0 0 0 0 0 0 0 0.1 0"/>
<feBlend mode="normal" in2="BackgroundImageFix" result="effect1_dropShadow_143_49"/>
<feBlend mode="normal" in="SourceGraphic" in2="effect1_dropShadow_143_49" result="shape"/>
</filter>
</defs>
</svg>
