<svg width="116" height="65" viewBox="0 0 116 65" fill="none" xmlns="http://www.w3.org/2000/svg">
<g filter="url(#filter0_d_38_23)">
<rect x="20" y="20" width="76" height="25" rx="8" fill="white"/>
</g>
<g filter="url(#filter1_d_38_23)">
<rect x="24" y="24" width="32" height="17" rx="4" fill="#470FF4"/>
</g>
<path d="M27.8736 36V29H32.2836V29.98H28.9536V31.99H32.0036V32.97H28.9536V35.02H32.3336V36H27.8736ZM33.4895 36V31.07H34.4995V31.81H34.6595C34.7528 31.61 34.9195 31.4233 35.1595 31.25C35.3995 31.0767 35.7562 30.99 36.2295 30.99C36.6028 30.99 36.9328 31.0733 37.2195 31.24C37.5128 31.4067 37.7428 31.6433 37.9095 31.95C38.0762 32.25 38.1595 32.6133 38.1595 33.04V36H37.1295V33.12C37.1295 32.6933 37.0228 32.38 36.8095 32.18C36.5962 31.9733 36.3028 31.87 35.9295 31.87C35.5028 31.87 35.1595 32.01 34.8995 32.29C34.6462 32.57 34.5195 32.9767 34.5195 33.51V36H33.4895ZM41.3551 36C41.0551 36 40.8151 35.91 40.6351 35.73C40.4618 35.55 40.3751 35.31 40.3751 35.01V31.94H39.0151V31.07H40.3751V29.44H41.4051V31.07H42.8751V31.94H41.4051V34.83C41.4051 35.03 41.4985 35.13 41.6851 35.13H42.7151V36H41.3551ZM46.1694 36.14C45.6694 36.14 45.2327 36.0367 44.8594 35.83C44.4861 35.6167 44.1927 35.32 43.9794 34.94C43.7727 34.5533 43.6694 34.1067 43.6694 33.6V33.48C43.6694 32.9667 43.7727 32.52 43.9794 32.14C44.1861 31.7533 44.4727 31.4567 44.8394 31.25C45.2127 31.0367 45.6427 30.93 46.1294 30.93C46.6027 30.93 47.0161 31.0367 47.3694 31.25C47.7294 31.4567 48.0094 31.7467 48.2094 32.12C48.4094 32.4933 48.5094 32.93 48.5094 33.43V33.82H44.7194C44.7327 34.2533 44.8761 34.6 45.1494 34.86C45.4294 35.1133 45.7761 35.24 46.1894 35.24C46.5761 35.24 46.8661 35.1533 47.0594 34.98C47.2594 34.8067 47.4127 34.6067 47.5194 34.38L48.3694 34.82C48.2761 35.0067 48.1394 35.2033 47.9594 35.41C47.7861 35.6167 47.5561 35.79 47.2694 35.93C46.9827 36.07 46.6161 36.14 46.1694 36.14ZM44.7294 33.03H47.4594C47.4327 32.6567 47.2994 32.3667 47.0594 32.16C46.8194 31.9467 46.5061 31.84 46.1194 31.84C45.7327 31.84 45.4161 31.9467 45.1694 32.16C44.9294 32.3667 44.7827 32.6567 44.7294 33.03ZM49.7493 36V31.07H50.7593V31.65H50.9193C50.9993 31.4433 51.1259 31.2933 51.2993 31.2C51.4793 31.1 51.6993 31.05 51.9593 31.05H52.5493V31.98H51.9193C51.5859 31.98 51.3126 32.0733 51.0993 32.26C50.8859 32.44 50.7793 32.72 50.7793 33.1V36H49.7493Z" fill="white"/>
<path d="M60.1156 36C59.8556 36 59.6589 35.9333 59.5256 35.8C59.3989 35.6667 59.3356 35.48 59.3356 35.24V31.68H57.7756V31.14H59.3356V29.32H59.9356V31.14H61.6356V31.68H59.9356V35.16C59.9356 35.36 60.0356 35.46 60.2356 35.46H61.3756V36H60.1156ZM65.0189 36.14C64.5256 36.14 64.0923 36.0367 63.7189 35.83C63.3523 35.6167 63.0656 35.3233 62.8589 34.95C62.6589 34.57 62.5589 34.13 62.5589 33.63V33.51C62.5589 33.01 62.6589 32.5733 62.8589 32.2C63.0656 31.82 63.3523 31.5267 63.7189 31.32C64.0923 31.1067 64.5256 31 65.0189 31C65.5123 31 65.9423 31.1067 66.3089 31.32C66.6823 31.5267 66.9689 31.82 67.1689 32.2C67.3756 32.5733 67.4789 33.01 67.4789 33.51V33.63C67.4789 34.13 67.3756 34.57 67.1689 34.95C66.9689 35.3233 66.6823 35.6167 66.3089 35.83C65.9423 36.0367 65.5123 36.14 65.0189 36.14ZM65.0189 35.6C65.5923 35.6 66.0456 35.42 66.3789 35.06C66.7123 34.6933 66.8789 34.21 66.8789 33.61V33.53C66.8789 32.93 66.7123 32.45 66.3789 32.09C66.0456 31.7233 65.5923 31.54 65.0189 31.54C64.4523 31.54 63.9989 31.7233 63.6589 32.09C63.3256 32.45 63.1589 32.93 63.1589 33.53V33.61C63.1589 34.21 63.3256 34.6933 63.6589 35.06C63.9989 35.42 64.4523 35.6 65.0189 35.6ZM73.5082 36.14C72.9216 36.14 72.4182 36 71.9982 35.72C71.5849 35.44 71.3316 34.9767 71.2382 34.33L71.8282 34.22C71.8816 34.5733 71.9882 34.8533 72.1482 35.06C72.3149 35.26 72.5149 35.4033 72.7482 35.49C72.9882 35.5767 73.2416 35.62 73.5082 35.62C73.9082 35.62 74.2282 35.54 74.4682 35.38C74.7149 35.2133 74.8382 34.9867 74.8382 34.7C74.8382 34.4067 74.7216 34.2033 74.4882 34.09C74.2616 33.9767 73.9582 33.8867 73.5782 33.82L73.1182 33.74C72.8116 33.6867 72.5349 33.6067 72.2882 33.5C72.0416 33.3867 71.8449 33.2367 71.6982 33.05C71.5582 32.8633 71.4882 32.63 71.4882 32.35C71.4882 31.93 71.6516 31.6 71.9782 31.36C72.3116 31.12 72.7516 31 73.2982 31C73.8516 31 74.2949 31.1267 74.6282 31.38C74.9682 31.6267 75.1816 31.9867 75.2682 32.46L74.7082 32.58C74.6416 32.1933 74.4816 31.92 74.2282 31.76C73.9816 31.6 73.6716 31.52 73.2982 31.52C72.9316 31.52 72.6382 31.59 72.4182 31.73C72.1982 31.87 72.0882 32.0767 72.0882 32.35C72.0882 32.6167 72.1882 32.8133 72.3882 32.94C72.5882 33.06 72.8616 33.15 73.2082 33.21L73.6682 33.29C74.0016 33.3433 74.3016 33.4233 74.5682 33.53C74.8349 33.63 75.0449 33.7733 75.1982 33.96C75.3582 34.1467 75.4382 34.3933 75.4382 34.7C75.4382 35.16 75.2649 35.5167 74.9182 35.77C74.5716 36.0167 74.1016 36.14 73.5082 36.14ZM78.3124 36.14C77.9724 36.14 77.6624 36.0833 77.3824 35.97C77.109 35.85 76.8924 35.6767 76.7324 35.45C76.5724 35.2233 76.4924 34.95 76.4924 34.63C76.4924 34.3033 76.5724 34.0333 76.7324 33.82C76.8924 33.6067 77.109 33.4467 77.3824 33.34C77.6557 33.2333 77.959 33.18 78.2924 33.18H80.0724V32.79C80.0724 32.3967 79.959 32.09 79.7324 31.87C79.5057 31.65 79.1757 31.54 78.7424 31.54C78.3157 31.54 77.9757 31.6467 77.7224 31.86C77.4757 32.0667 77.309 32.3467 77.2224 32.7L76.6424 32.53C76.7224 32.2433 76.849 31.9867 77.0224 31.76C77.1957 31.5267 77.4257 31.3433 77.7124 31.21C77.999 31.07 78.3424 31 78.7424 31C79.3557 31 79.829 31.16 80.1624 31.48C80.5024 31.8 80.6724 32.2467 80.6724 32.82V35.18C80.6724 35.38 80.7657 35.48 80.9524 35.48H81.4224V36H80.7824C80.5757 36 80.4124 35.94 80.2924 35.82C80.1724 35.6933 80.1124 35.5233 80.1124 35.31V35.24H80.0124C79.9257 35.3867 79.8124 35.53 79.6724 35.67C79.539 35.81 79.3624 35.9233 79.1424 36.01C78.9224 36.0967 78.6457 36.14 78.3124 36.14ZM78.3524 35.6C78.8657 35.6 79.279 35.4467 79.5924 35.14C79.9124 34.8267 80.0724 34.3867 80.0724 33.82V33.7H78.3024C77.9557 33.7 77.6657 33.7767 77.4324 33.93C77.2057 34.0767 77.0924 34.3067 77.0924 34.62C77.0924 34.9333 77.209 35.1767 77.4424 35.35C77.6824 35.5167 77.9857 35.6 78.3524 35.6ZM83.6209 36L81.8009 31.14H82.4409L84.0409 35.54H84.1609L85.7609 31.14H86.4009L84.5809 36H83.6209ZM89.6679 36.14C89.1679 36.14 88.7312 36.0367 88.3579 35.83C87.9912 35.6167 87.7045 35.32 87.4979 34.94C87.2912 34.56 87.1879 34.1233 87.1879 33.63V33.51C87.1879 33.01 87.2912 32.5733 87.4979 32.2C87.7045 31.82 87.9879 31.5267 88.3479 31.32C88.7145 31.1067 89.1312 31 89.5979 31C90.0512 31 90.4512 31.0967 90.7979 31.29C91.1512 31.4767 91.4279 31.75 91.6279 32.11C91.8279 32.4633 91.9279 32.8867 91.9279 33.38V33.7H87.7879C87.8079 34.3067 87.9912 34.7767 88.3379 35.11C88.6912 35.4367 89.1345 35.6 89.6679 35.6C90.1212 35.6 90.4712 35.4967 90.7179 35.29C90.9712 35.0833 91.1645 34.83 91.2979 34.53L91.8379 34.77C91.7379 34.99 91.5979 35.2067 91.4179 35.42C91.2445 35.6267 91.0179 35.8 90.7379 35.94C90.4579 36.0733 90.1012 36.14 89.6679 36.14ZM87.7979 33.18H91.3179C91.2912 32.6533 91.1212 32.25 90.8079 31.97C90.4945 31.6833 90.0912 31.54 89.5979 31.54C89.1112 31.54 88.7079 31.6833 88.3879 31.97C88.0679 32.25 87.8712 32.6533 87.7979 33.18Z" fill="#1A1B25"/>
<defs>
<filter id="filter0_d_38_23" x="0" y="0" width="116" height="65" filterUnits="userSpaceOnUse" color-interpolation-filters="sRGB">
<feFlood flood-opacity="0" result="BackgroundImageFix"/>
<feColorMatrix in="SourceAlpha" type="matrix" values="0 0 0 0 0 0 0 0 0 0 0 0 0 0 0 0 0 0 127 0" result="hardAlpha"/>
<feOffset/>
<feGaussianBlur stdDeviation="10"/>
<feComposite in2="hardAlpha" operator="out"/>
<feColorMatrix type="matrix" values="0 0 0 0 0 0 0 0 0 0 0 0 0 0 0 0 0 0 0.1 0"/>
<feBlend mode="normal" in2="BackgroundImageFix" result="effect1_dropShadow_38_23"/>
<feBlend mode="normal" in="SourceGraphic" in2="effect1_dropShadow_38_23" result="shape"/>
</filter>
<filter id="filter1_d_38_23" x="14" y="14" width="52" height="37" filterUnits="userSpaceOnUse" color-interpolation-filters="sRGB">
<feFlood flood-opacity="0" result="BackgroundImageFix"/>
<feColorMatrix in="SourceAlpha" type="matrix" values="0 0 0 0 0 0 0 0 0 0 0 0 0 0 0 0 0 0 127 0" result="hardAlpha"/>
<feOffset/>
<feGaussianBlur stdDeviation="5"/>
<feComposite in2="hardAlpha" operator="out"/>
<feColorMatrix type="matrix" values="0 0 0 0 0 0 0 0 0 0 0 0 0 0 0 0 0 0 0.1 0"/>
<feBlend mode="normal" in2="BackgroundImageFix" result="effect1_dropShadow_38_23"/>
<feBlend mode="normal" in="SourceGraphic" in2="effect1_dropShadow_38_23" result="shape"/>
</filter>
</defs>
</svg>
