<svg width="36" height="36" viewBox="0 0 36 36" fill="none" xmlns="http://www.w3.org/2000/svg">
<g filter="url(#filter0_d_35_38)">
<circle cx="17.75" cy="13.75" r="13.75" fill="#E5E6E4"/>
<path fill-rule="evenodd" clip-rule="evenodd" d="M31.5 13.75C31.5 17.4895 30.0072 20.8804 27.585 23.3592C27.855 22.7701 28 22.1461 28 21.5C28 18.4033 24.6684 15.8123 20.2078 15.159C21.875 14.0423 23 11.9264 23 9.5C23 5.91015 20.5376 3 17.5 3C14.4624 3 12 5.91015 12 9.5C12 12.0297 13.2227 14.2218 15.0078 15.296C10.9467 16.1227 8 18.5877 8 21.5C8 22.5384 8.37464 23.52 9.04085 24.3907C5.96361 21.8691 4 18.0389 4 13.75C4 6.15608 10.1561 0 17.75 0C25.3439 0 31.5 6.15608 31.5 13.75Z" fill="#1A1B25"/>
</g>
<defs>
<filter id="filter0_d_35_38" x="0" y="0" width="35.5" height="35.5" filterUnits="userSpaceOnUse" color-interpolation-filters="sRGB">
<feFlood flood-opacity="0" result="BackgroundImageFix"/>
<feColorMatrix in="SourceAlpha" type="matrix" values="0 0 0 0 0 0 0 0 0 0 0 0 0 0 0 0 0 0 127 0" result="hardAlpha"/>
<feOffset dy="4"/>
<feGaussianBlur stdDeviation="2"/>
<feComposite in2="hardAlpha" operator="out"/>
<feColorMatrix type="matrix" values="0 0 0 0 0 0 0 0 0 0 0 0 0 0 0 0 0 0 0.25 0"/>
<feBlend mode="normal" in2="BackgroundImageFix" result="effect1_dropShadow_35_38"/>
<feBlend mode="normal" in="SourceGraphic" in2="effect1_dropShadow_35_38" result="shape"/>
</filter>
</defs>
</svg>
