<svg width="54" height="28" viewBox="0 0 54 28" fill="none" xmlns="http://www.w3.org/2000/svg">
<g filter="url(#filter0_d_37_61)">
<rect x="4" width="46" height="20" rx="10" fill="#470FF4"/>
<path d="M15.5634 15V5.2H19.8054C20.6827 5.2 21.4387 5.34467 22.0734 5.634C22.708 5.914 23.198 6.32 23.5434 6.852C23.8887 7.384 24.0614 8.01867 24.0614 8.756C24.0614 9.484 23.8887 10.114 23.5434 10.646C23.198 11.178 22.708 11.5887 22.0734 11.878C21.4387 12.158 20.6827 12.298 19.8054 12.298H16.8234L17.8314 11.276V15H15.5634ZM17.8314 11.528L16.8234 10.45H19.6794C20.3794 10.45 20.902 10.3007 21.2474 10.002C21.5927 9.70333 21.7654 9.288 21.7654 8.756C21.7654 8.21467 21.5927 7.79467 21.2474 7.496C20.902 7.19733 20.3794 7.048 19.6794 7.048H16.8234L17.8314 5.97V11.528ZM25.5129 15V7.468H27.5989V9.596L27.3049 8.98C27.5289 8.448 27.8882 8.04667 28.3829 7.776C28.8775 7.496 29.4795 7.356 30.1889 7.356V9.372C30.0955 9.36267 30.0115 9.358 29.9369 9.358C29.8622 9.34867 29.7829 9.344 29.6989 9.344C29.1015 9.344 28.6162 9.51667 28.2429 9.862C27.8789 10.198 27.6969 10.7253 27.6969 11.444V15H25.5129ZM35.0168 15.112C34.2141 15.112 33.5001 14.944 32.8748 14.608C32.2588 14.272 31.7688 13.8147 31.4048 13.236C31.0501 12.648 30.8728 11.9807 30.8728 11.234C30.8728 10.478 31.0501 9.81067 31.4048 9.232C31.7688 8.644 32.2588 8.18667 32.8748 7.86C33.5001 7.524 34.2141 7.356 35.0168 7.356C35.8101 7.356 36.5195 7.524 37.1448 7.86C37.7701 8.18667 38.2601 8.63933 38.6148 9.218C38.9695 9.79667 39.1468 10.4687 39.1468 11.234C39.1468 11.9807 38.9695 12.648 38.6148 13.236C38.2601 13.8147 37.7701 14.272 37.1448 14.608C36.5195 14.944 35.8101 15.112 35.0168 15.112ZM35.0168 13.32C35.3808 13.32 35.7075 13.236 35.9968 13.068C36.2861 12.9 36.5148 12.662 36.6828 12.354C36.8508 12.0367 36.9348 11.6633 36.9348 11.234C36.9348 10.7953 36.8508 10.422 36.6828 10.114C36.5148 9.806 36.2861 9.568 35.9968 9.4C35.7075 9.232 35.3808 9.148 35.0168 9.148C34.6528 9.148 34.3261 9.232 34.0368 9.4C33.7475 9.568 33.5141 9.806 33.3368 10.114C33.1688 10.422 33.0848 10.7953 33.0848 11.234C33.0848 11.6633 33.1688 12.0367 33.3368 12.354C33.5141 12.662 33.7475 12.9 34.0368 13.068C34.3261 13.236 34.6528 13.32 35.0168 13.32Z" fill="white"/>
</g>
<defs>
<filter id="filter0_d_37_61" x="0" y="0" width="54" height="28" filterUnits="userSpaceOnUse" color-interpolation-filters="sRGB">
<feFlood flood-opacity="0" result="BackgroundImageFix"/>
<feColorMatrix in="SourceAlpha" type="matrix" values="0 0 0 0 0 0 0 0 0 0 0 0 0 0 0 0 0 0 127 0" result="hardAlpha"/>
<feOffset dy="4"/>
<feGaussianBlur stdDeviation="2"/>
<feComposite in2="hardAlpha" operator="out"/>
<feColorMatrix type="matrix" values="0 0 0 0 0 0 0 0 0 0 0 0 0 0 0 0 0 0 0.25 0"/>
<feBlend mode="normal" in2="BackgroundImageFix" result="effect1_dropShadow_37_61"/>
<feBlend mode="normal" in="SourceGraphic" in2="effect1_dropShadow_37_61" result="shape"/>
</filter>
</defs>
</svg>
