<svg width="132" height="65" viewBox="0 0 132 65" fill="none" xmlns="http://www.w3.org/2000/svg">
<g filter="url(#filter0_d_38_18)">
<rect x="20" y="20" width="92" height="25" rx="8" fill="white"/>
</g>
<g filter="url(#filter1_d_38_18)">
<rect x="24" y="24" width="32" height="17" rx="4" fill="#470FF4"/>
</g>
<path d="M27.8736 36V29H32.2836V29.98H28.9536V31.99H32.0036V32.97H28.9536V35.02H32.3336V36H27.8736ZM33.4895 36V31.07H34.4995V31.81H34.6595C34.7528 31.61 34.9195 31.4233 35.1595 31.25C35.3995 31.0767 35.7562 30.99 36.2295 30.99C36.6028 30.99 36.9328 31.0733 37.2195 31.24C37.5128 31.4067 37.7428 31.6433 37.9095 31.95C38.0762 32.25 38.1595 32.6133 38.1595 33.04V36H37.1295V33.12C37.1295 32.6933 37.0228 32.38 36.8095 32.18C36.5962 31.9733 36.3028 31.87 35.9295 31.87C35.5028 31.87 35.1595 32.01 34.8995 32.29C34.6462 32.57 34.5195 32.9767 34.5195 33.51V36H33.4895ZM41.3551 36C41.0551 36 40.8151 35.91 40.6351 35.73C40.4618 35.55 40.3751 35.31 40.3751 35.01V31.94H39.0151V31.07H40.3751V29.44H41.4051V31.07H42.8751V31.94H41.4051V34.83C41.4051 35.03 41.4985 35.13 41.6851 35.13H42.7151V36H41.3551ZM46.1694 36.14C45.6694 36.14 45.2327 36.0367 44.8594 35.83C44.4861 35.6167 44.1927 35.32 43.9794 34.94C43.7727 34.5533 43.6694 34.1067 43.6694 33.6V33.48C43.6694 32.9667 43.7727 32.52 43.9794 32.14C44.1861 31.7533 44.4727 31.4567 44.8394 31.25C45.2127 31.0367 45.6427 30.93 46.1294 30.93C46.6027 30.93 47.0161 31.0367 47.3694 31.25C47.7294 31.4567 48.0094 31.7467 48.2094 32.12C48.4094 32.4933 48.5094 32.93 48.5094 33.43V33.82H44.7194C44.7327 34.2533 44.8761 34.6 45.1494 34.86C45.4294 35.1133 45.7761 35.24 46.1894 35.24C46.5761 35.24 46.8661 35.1533 47.0594 34.98C47.2594 34.8067 47.4127 34.6067 47.5194 34.38L48.3694 34.82C48.2761 35.0067 48.1394 35.2033 47.9594 35.41C47.7861 35.6167 47.5561 35.79 47.2694 35.93C46.9827 36.07 46.6161 36.14 46.1694 36.14ZM44.7294 33.03H47.4594C47.4327 32.6567 47.2994 32.3667 47.0594 32.16C46.8194 31.9467 46.5061 31.84 46.1194 31.84C45.7327 31.84 45.4161 31.9467 45.1694 32.16C44.9294 32.3667 44.7827 32.6567 44.7294 33.03ZM49.7493 36V31.07H50.7593V31.65H50.9193C50.9993 31.4433 51.1259 31.2933 51.2993 31.2C51.4793 31.1 51.6993 31.05 51.9593 31.05H52.5493V31.98H51.9193C51.5859 31.98 51.3126 32.0733 51.0993 32.26C50.8859 32.44 50.7793 32.72 50.7793 33.1V36H49.7493Z" fill="white"/>
<path d="M61.6957 36C61.4357 36 61.239 35.9333 61.1057 35.8C60.979 35.6667 60.9157 35.48 60.9157 35.24V31.68H59.3557V31.14H60.9157V29.32H61.5157V31.14H63.2157V31.68H61.5157V35.16C61.5157 35.36 61.6157 35.46 61.8157 35.46H62.9557V36H61.6957ZM66.599 36.14C66.1057 36.14 65.6724 36.0367 65.299 35.83C64.9324 35.6167 64.6457 35.3233 64.439 34.95C64.239 34.57 64.139 34.13 64.139 33.63V33.51C64.139 33.01 64.239 32.5733 64.439 32.2C64.6457 31.82 64.9324 31.5267 65.299 31.32C65.6724 31.1067 66.1057 31 66.599 31C67.0924 31 67.5224 31.1067 67.889 31.32C68.2624 31.5267 68.549 31.82 68.749 32.2C68.9557 32.5733 69.059 33.01 69.059 33.51V33.63C69.059 34.13 68.9557 34.57 68.749 34.95C68.549 35.3233 68.2624 35.6167 67.889 35.83C67.5224 36.0367 67.0924 36.14 66.599 36.14ZM66.599 35.6C67.1724 35.6 67.6257 35.42 67.959 35.06C68.2924 34.6933 68.459 34.21 68.459 33.61V33.53C68.459 32.93 68.2924 32.45 67.959 32.09C67.6257 31.7233 67.1724 31.54 66.599 31.54C66.0324 31.54 65.579 31.7233 65.239 32.09C64.9057 32.45 64.739 32.93 64.739 33.53V33.61C64.739 34.21 64.9057 34.6933 65.239 35.06C65.579 35.42 66.0324 35.6 66.599 35.6ZM75.0883 36.14C74.5017 36.14 73.9983 36 73.5783 35.72C73.165 35.44 72.9117 34.9767 72.8183 34.33L73.4083 34.22C73.4617 34.5733 73.5683 34.8533 73.7283 35.06C73.895 35.26 74.095 35.4033 74.3283 35.49C74.5683 35.5767 74.8217 35.62 75.0883 35.62C75.4883 35.62 75.8083 35.54 76.0483 35.38C76.295 35.2133 76.4183 34.9867 76.4183 34.7C76.4183 34.4067 76.3017 34.2033 76.0683 34.09C75.8417 33.9767 75.5383 33.8867 75.1583 33.82L74.6983 33.74C74.3917 33.6867 74.115 33.6067 73.8683 33.5C73.6217 33.3867 73.425 33.2367 73.2783 33.05C73.1383 32.8633 73.0683 32.63 73.0683 32.35C73.0683 31.93 73.2317 31.6 73.5583 31.36C73.8917 31.12 74.3317 31 74.8783 31C75.4317 31 75.875 31.1267 76.2083 31.38C76.5483 31.6267 76.7617 31.9867 76.8483 32.46L76.2883 32.58C76.2217 32.1933 76.0617 31.92 75.8083 31.76C75.5617 31.6 75.2517 31.52 74.8783 31.52C74.5117 31.52 74.2183 31.59 73.9983 31.73C73.7783 31.87 73.6683 32.0767 73.6683 32.35C73.6683 32.6167 73.7683 32.8133 73.9683 32.94C74.1683 33.06 74.4417 33.15 74.7883 33.21L75.2483 33.29C75.5817 33.3433 75.8817 33.4233 76.1483 33.53C76.415 33.63 76.625 33.7733 76.7783 33.96C76.9383 34.1467 77.0183 34.3933 77.0183 34.7C77.0183 35.16 76.845 35.5167 76.4983 35.77C76.1517 36.0167 75.6817 36.14 75.0883 36.14ZM80.6815 36.14C80.1815 36.14 79.7449 36.0367 79.3715 35.83C79.0049 35.6167 78.7182 35.32 78.5115 34.94C78.3049 34.56 78.2015 34.1233 78.2015 33.63V33.51C78.2015 33.01 78.3049 32.5733 78.5115 32.2C78.7182 31.82 79.0015 31.5267 79.3615 31.32C79.7282 31.1067 80.1449 31 80.6115 31C81.0649 31 81.4649 31.0967 81.8115 31.29C82.1649 31.4767 82.4415 31.75 82.6415 32.11C82.8415 32.4633 82.9415 32.8867 82.9415 33.38V33.7H78.8015C78.8215 34.3067 79.0049 34.7767 79.3515 35.11C79.7049 35.4367 80.1482 35.6 80.6815 35.6C81.1349 35.6 81.4849 35.4967 81.7315 35.29C81.9849 35.0833 82.1782 34.83 82.3115 34.53L82.8515 34.77C82.7515 34.99 82.6115 35.2067 82.4315 35.42C82.2582 35.6267 82.0315 35.8 81.7515 35.94C81.4715 36.0733 81.1149 36.14 80.6815 36.14ZM78.8115 33.18H82.3315C82.3049 32.6533 82.1349 32.25 81.8215 31.97C81.5082 31.6833 81.1049 31.54 80.6115 31.54C80.1249 31.54 79.7215 31.6833 79.4015 31.97C79.0815 32.25 78.8849 32.6533 78.8115 33.18ZM85.9081 36.14C85.5681 36.14 85.2581 36.0833 84.9781 35.97C84.7048 35.85 84.4881 35.6767 84.3281 35.45C84.1681 35.2233 84.0881 34.95 84.0881 34.63C84.0881 34.3033 84.1681 34.0333 84.3281 33.82C84.4881 33.6067 84.7048 33.4467 84.9781 33.34C85.2514 33.2333 85.5548 33.18 85.8881 33.18H87.6681V32.79C87.6681 32.3967 87.5548 32.09 87.3281 31.87C87.1014 31.65 86.7714 31.54 86.3381 31.54C85.9114 31.54 85.5714 31.6467 85.3181 31.86C85.0714 32.0667 84.9048 32.3467 84.8181 32.7L84.2381 32.53C84.3181 32.2433 84.4448 31.9867 84.6181 31.76C84.7914 31.5267 85.0214 31.3433 85.3081 31.21C85.5948 31.07 85.9381 31 86.3381 31C86.9514 31 87.4248 31.16 87.7581 31.48C88.0981 31.8 88.2681 32.2467 88.2681 32.82V35.18C88.2681 35.38 88.3614 35.48 88.5481 35.48H89.0181V36H88.3781C88.1714 36 88.0081 35.94 87.8881 35.82C87.7681 35.6933 87.7081 35.5233 87.7081 35.31V35.24H87.6081C87.5214 35.3867 87.4081 35.53 87.2681 35.67C87.1348 35.81 86.9581 35.9233 86.7381 36.01C86.5181 36.0967 86.2414 36.14 85.9081 36.14ZM85.9481 35.6C86.4614 35.6 86.8748 35.4467 87.1881 35.14C87.5081 34.8267 87.6681 34.3867 87.6681 33.82V33.7H85.8981C85.5514 33.7 85.2614 33.7767 85.0281 33.93C84.8014 34.0767 84.6881 34.3067 84.6881 34.62C84.6881 34.9333 84.8048 35.1767 85.0381 35.35C85.2781 35.5167 85.5814 35.6 85.9481 35.6ZM90.1603 36V31.14H90.7403V31.75H90.8603C90.9536 31.53 91.0903 31.37 91.2703 31.27C91.4569 31.17 91.7136 31.12 92.0403 31.12H92.6103V31.68H91.9703C91.6036 31.68 91.3103 31.7833 91.0903 31.99C90.8703 32.1967 90.7603 32.52 90.7603 32.96V36H90.1603ZM95.8959 36.14C95.4226 36.14 94.9992 36.04 94.6259 35.84C94.2592 35.6333 93.9692 35.34 93.7559 34.96C93.5426 34.58 93.4359 34.1333 93.4359 33.62V33.52C93.4359 33 93.5426 32.5533 93.7559 32.18C93.9692 31.8 94.2592 31.51 94.6259 31.31C94.9992 31.1033 95.4226 31 95.8959 31C96.3626 31 96.7559 31.09 97.0759 31.27C97.4026 31.4433 97.6559 31.6733 97.8359 31.96C98.0226 32.24 98.1392 32.5367 98.1859 32.85L97.5959 32.97C97.5626 32.71 97.4792 32.4733 97.3459 32.26C97.2126 32.04 97.0259 31.8667 96.7859 31.74C96.5459 31.6067 96.2492 31.54 95.8959 31.54C95.5426 31.54 95.2259 31.6233 94.9459 31.79C94.6659 31.95 94.4426 32.18 94.2759 32.48C94.1159 32.7733 94.0359 33.1233 94.0359 33.53V33.61C94.0359 34.0167 94.1159 34.37 94.2759 34.67C94.4426 34.9633 94.6659 35.1933 94.9459 35.36C95.2259 35.52 95.5426 35.6 95.8959 35.6C96.4292 35.6 96.8359 35.4633 97.1159 35.19C97.3959 34.91 97.5692 34.57 97.6359 34.17L98.2259 34.29C98.1659 34.6033 98.0392 34.9033 97.8459 35.19C97.6592 35.47 97.4026 35.7 97.0759 35.88C96.7559 36.0533 96.3626 36.14 95.8959 36.14ZM99.7013 36V29H100.301V31.99H100.421C100.501 31.83 100.611 31.68 100.751 31.54C100.898 31.3933 101.085 31.2767 101.311 31.19C101.545 31.0967 101.835 31.05 102.181 31.05C102.535 31.05 102.858 31.1233 103.151 31.27C103.445 31.4167 103.678 31.6367 103.851 31.93C104.031 32.2233 104.121 32.5933 104.121 33.04V36H103.521V33.08C103.521 32.5467 103.388 32.1667 103.121 31.94C102.855 31.7067 102.498 31.59 102.051 31.59C101.551 31.59 101.135 31.7533 100.801 32.08C100.468 32.4067 100.301 32.9033 100.301 33.57V36H99.7013Z" fill="#1A1B25"/>
<defs>
<filter id="filter0_d_38_18" x="0" y="0" width="132" height="65" filterUnits="userSpaceOnUse" color-interpolation-filters="sRGB">
<feFlood flood-opacity="0" result="BackgroundImageFix"/>
<feColorMatrix in="SourceAlpha" type="matrix" values="0 0 0 0 0 0 0 0 0 0 0 0 0 0 0 0 0 0 127 0" result="hardAlpha"/>
<feOffset/>
<feGaussianBlur stdDeviation="10"/>
<feComposite in2="hardAlpha" operator="out"/>
<feColorMatrix type="matrix" values="0 0 0 0 0 0 0 0 0 0 0 0 0 0 0 0 0 0 0.1 0"/>
<feBlend mode="normal" in2="BackgroundImageFix" result="effect1_dropShadow_38_18"/>
<feBlend mode="normal" in="SourceGraphic" in2="effect1_dropShadow_38_18" result="shape"/>
</filter>
<filter id="filter1_d_38_18" x="14" y="14" width="52" height="37" filterUnits="userSpaceOnUse" color-interpolation-filters="sRGB">
<feFlood flood-opacity="0" result="BackgroundImageFix"/>
<feColorMatrix in="SourceAlpha" type="matrix" values="0 0 0 0 0 0 0 0 0 0 0 0 0 0 0 0 0 0 127 0" result="hardAlpha"/>
<feOffset/>
<feGaussianBlur stdDeviation="5"/>
<feComposite in2="hardAlpha" operator="out"/>
<feColorMatrix type="matrix" values="0 0 0 0 0 0 0 0 0 0 0 0 0 0 0 0 0 0 0.1 0"/>
<feBlend mode="normal" in2="BackgroundImageFix" result="effect1_dropShadow_38_18"/>
<feBlend mode="normal" in="SourceGraphic" in2="effect1_dropShadow_38_18" result="shape"/>
</filter>
</defs>
</svg>
