<svg width="112" height="44" viewBox="0 0 112 44" fill="none" xmlns="http://www.w3.org/2000/svg">
<g filter="url(#filter0_d_86_39)">
<rect x="10" y="10" width="92" height="24" rx="8" fill="white"/>
</g>
<g filter="url(#filter1_d_86_39)">
<rect x="14" y="14" width="32.1626" height="16.129" rx="4" fill="#91C8FF"/>
</g>
<path d="M17.8736 25V18H22.2836V18.98H18.9536V20.99H22.0036V21.97H18.9536V24.02H22.3336V25H17.8736ZM23.4895 25V20.07H24.4995V20.81H24.6595C24.7528 20.61 24.9195 20.4233 25.1595 20.25C25.3995 20.0767 25.7562 19.99 26.2295 19.99C26.6028 19.99 26.9328 20.0733 27.2195 20.24C27.5128 20.4067 27.7428 20.6433 27.9095 20.95C28.0762 21.25 28.1595 21.6133 28.1595 22.04V25H27.1295V22.12C27.1295 21.6933 27.0228 21.38 26.8095 21.18C26.5962 20.9733 26.3028 20.87 25.9295 20.87C25.5028 20.87 25.1595 21.01 24.8995 21.29C24.6462 21.57 24.5195 21.9767 24.5195 22.51V25H23.4895ZM31.3551 25C31.0551 25 30.8151 24.91 30.6351 24.73C30.4618 24.55 30.3751 24.31 30.3751 24.01V20.94H29.0151V20.07H30.3751V18.44H31.4051V20.07H32.8751V20.94H31.4051V23.83C31.4051 24.03 31.4985 24.13 31.6851 24.13H32.7151V25H31.3551ZM36.1694 25.14C35.6694 25.14 35.2327 25.0367 34.8594 24.83C34.4861 24.6167 34.1927 24.32 33.9794 23.94C33.7727 23.5533 33.6694 23.1067 33.6694 22.6V22.48C33.6694 21.9667 33.7727 21.52 33.9794 21.14C34.1861 20.7533 34.4727 20.4567 34.8394 20.25C35.2127 20.0367 35.6427 19.93 36.1294 19.93C36.6027 19.93 37.0161 20.0367 37.3694 20.25C37.7294 20.4567 38.0094 20.7467 38.2094 21.12C38.4094 21.4933 38.5094 21.93 38.5094 22.43V22.82H34.7194C34.7327 23.2533 34.8761 23.6 35.1494 23.86C35.4294 24.1133 35.7761 24.24 36.1894 24.24C36.5761 24.24 36.8661 24.1533 37.0594 23.98C37.2594 23.8067 37.4127 23.6067 37.5194 23.38L38.3694 23.82C38.2761 24.0067 38.1394 24.2033 37.9594 24.41C37.7861 24.6167 37.5561 24.79 37.2694 24.93C36.9827 25.07 36.6161 25.14 36.1694 25.14ZM34.7294 22.03H37.4594C37.4327 21.6567 37.2994 21.3667 37.0594 21.16C36.8194 20.9467 36.5061 20.84 36.1194 20.84C35.7327 20.84 35.4161 20.9467 35.1694 21.16C34.9294 21.3667 34.7827 21.6567 34.7294 22.03ZM39.7493 25V20.07H40.7593V20.65H40.9193C40.9993 20.4433 41.1259 20.2933 41.2993 20.2C41.4793 20.1 41.6993 20.05 41.9593 20.05H42.5493V20.98H41.9193C41.5859 20.98 41.3126 21.0733 41.0993 21.26C40.8859 21.44 40.7793 21.72 40.7793 22.1V25H39.7493Z" fill="#2B6CA3"/>
<path d="M53.6576 25C53.3976 25 53.2009 24.9333 53.0676 24.8C52.9409 24.6667 52.8776 24.48 52.8776 24.24V20.68H51.3176V20.14H52.8776V18.32H53.4776V20.14H55.1776V20.68H53.4776V24.16C53.4776 24.36 53.5776 24.46 53.7776 24.46H54.9176V25H53.6576ZM58.5609 25.14C58.0676 25.14 57.6342 25.0367 57.2609 24.83C56.8942 24.6167 56.6076 24.3233 56.4009 23.95C56.2009 23.57 56.1009 23.13 56.1009 22.63V22.51C56.1009 22.01 56.2009 21.5733 56.4009 21.2C56.6076 20.82 56.8942 20.5267 57.2609 20.32C57.6342 20.1067 58.0676 20 58.5609 20C59.0542 20 59.4842 20.1067 59.8509 20.32C60.2243 20.5267 60.5109 20.82 60.7109 21.2C60.9176 21.5733 61.0209 22.01 61.0209 22.51V22.63C61.0209 23.13 60.9176 23.57 60.7109 23.95C60.5109 24.3233 60.2243 24.6167 59.8509 24.83C59.4842 25.0367 59.0542 25.14 58.5609 25.14ZM58.5609 24.6C59.1343 24.6 59.5876 24.42 59.9209 24.06C60.2543 23.6933 60.4209 23.21 60.4209 22.61V22.53C60.4209 21.93 60.2543 21.45 59.9209 21.09C59.5876 20.7233 59.1343 20.54 58.5609 20.54C57.9942 20.54 57.5409 20.7233 57.2009 21.09C56.8676 21.45 56.7009 21.93 56.7009 22.53V22.61C56.7009 23.21 56.8676 23.6933 57.2009 24.06C57.5409 24.42 57.9942 24.6 58.5609 24.6ZM67.0502 25.14C66.4635 25.14 65.9602 25 65.5402 24.72C65.1269 24.44 64.8735 23.9767 64.7802 23.33L65.3702 23.22C65.4235 23.5733 65.5302 23.8533 65.6902 24.06C65.8569 24.26 66.0569 24.4033 66.2902 24.49C66.5302 24.5767 66.7835 24.62 67.0502 24.62C67.4502 24.62 67.7702 24.54 68.0102 24.38C68.2569 24.2133 68.3802 23.9867 68.3802 23.7C68.3802 23.4067 68.2635 23.2033 68.0302 23.09C67.8035 22.9767 67.5002 22.8867 67.1202 22.82L66.6602 22.74C66.3535 22.6867 66.0769 22.6067 65.8302 22.5C65.5835 22.3867 65.3869 22.2367 65.2402 22.05C65.1002 21.8633 65.0302 21.63 65.0302 21.35C65.0302 20.93 65.1935 20.6 65.5202 20.36C65.8535 20.12 66.2935 20 66.8402 20C67.3935 20 67.8369 20.1267 68.1702 20.38C68.5102 20.6267 68.7235 20.9867 68.8102 21.46L68.2502 21.58C68.1835 21.1933 68.0235 20.92 67.7702 20.76C67.5235 20.6 67.2135 20.52 66.8402 20.52C66.4735 20.52 66.1802 20.59 65.9602 20.73C65.7402 20.87 65.6302 21.0767 65.6302 21.35C65.6302 21.6167 65.7302 21.8133 65.9302 21.94C66.1302 22.06 66.4035 22.15 66.7502 22.21L67.2102 22.29C67.5435 22.3433 67.8435 22.4233 68.1102 22.53C68.3769 22.63 68.5869 22.7733 68.7402 22.96C68.9002 23.1467 68.9802 23.3933 68.9802 23.7C68.9802 24.16 68.8069 24.5167 68.4602 24.77C68.1135 25.0167 67.6435 25.14 67.0502 25.14ZM72.6434 25.14C72.1434 25.14 71.7068 25.0367 71.3334 24.83C70.9667 24.6167 70.6801 24.32 70.4734 23.94C70.2667 23.56 70.1634 23.1233 70.1634 22.63V22.51C70.1634 22.01 70.2667 21.5733 70.4734 21.2C70.6801 20.82 70.9634 20.5267 71.3234 20.32C71.6901 20.1067 72.1067 20 72.5734 20C73.0268 20 73.4268 20.0967 73.7734 20.29C74.1267 20.4767 74.4034 20.75 74.6034 21.11C74.8034 21.4633 74.9034 21.8867 74.9034 22.38V22.7H70.7634C70.7834 23.3067 70.9667 23.7767 71.3134 24.11C71.6667 24.4367 72.1101 24.6 72.6434 24.6C73.0968 24.6 73.4468 24.4967 73.6934 24.29C73.9468 24.0833 74.1401 23.83 74.2734 23.53L74.8134 23.77C74.7134 23.99 74.5734 24.2067 74.3934 24.42C74.2201 24.6267 73.9934 24.8 73.7134 24.94C73.4334 25.0733 73.0767 25.14 72.6434 25.14ZM70.7734 22.18H74.2934C74.2668 21.6533 74.0968 21.25 73.7834 20.97C73.4701 20.6833 73.0667 20.54 72.5734 20.54C72.0867 20.54 71.6834 20.6833 71.3634 20.97C71.0434 21.25 70.8467 21.6533 70.7734 22.18ZM77.87 25.14C77.53 25.14 77.22 25.0833 76.94 24.97C76.6666 24.85 76.45 24.6767 76.29 24.45C76.13 24.2233 76.05 23.95 76.05 23.63C76.05 23.3033 76.13 23.0333 76.29 22.82C76.45 22.6067 76.6666 22.4467 76.94 22.34C77.2133 22.2333 77.5166 22.18 77.85 22.18H79.63V21.79C79.63 21.3967 79.5166 21.09 79.29 20.87C79.0633 20.65 78.7333 20.54 78.3 20.54C77.8733 20.54 77.5333 20.6467 77.28 20.86C77.0333 21.0667 76.8666 21.3467 76.78 21.7L76.2 21.53C76.28 21.2433 76.4066 20.9867 76.58 20.76C76.7533 20.5267 76.9833 20.3433 77.27 20.21C77.5566 20.07 77.9 20 78.3 20C78.9133 20 79.3866 20.16 79.72 20.48C80.06 20.8 80.23 21.2467 80.23 21.82V24.18C80.23 24.38 80.3233 24.48 80.51 24.48H80.98V25H80.34C80.1333 25 79.97 24.94 79.85 24.82C79.73 24.6933 79.67 24.5233 79.67 24.31V24.24H79.57C79.4833 24.3867 79.37 24.53 79.23 24.67C79.0966 24.81 78.92 24.9233 78.7 25.01C78.48 25.0967 78.2033 25.14 77.87 25.14ZM77.91 24.6C78.4233 24.6 78.8366 24.4467 79.15 24.14C79.47 23.8267 79.63 23.3867 79.63 22.82V22.7H77.86C77.5133 22.7 77.2233 22.7767 76.99 22.93C76.7633 23.0767 76.65 23.3067 76.65 23.62C76.65 23.9333 76.7666 24.1767 77 24.35C77.24 24.5167 77.5433 24.6 77.91 24.6ZM82.1222 25V20.14H82.7022V20.75H82.8222C82.9155 20.53 83.0522 20.37 83.2322 20.27C83.4188 20.17 83.6755 20.12 84.0022 20.12H84.5722V20.68H83.9322C83.5655 20.68 83.2722 20.7833 83.0522 20.99C82.8322 21.1967 82.7222 21.52 82.7222 21.96V25H82.1222ZM87.8578 25.14C87.3845 25.14 86.9611 25.04 86.5878 24.84C86.2211 24.6333 85.9311 24.34 85.7178 23.96C85.5045 23.58 85.3978 23.1333 85.3978 22.62V22.52C85.3978 22 85.5045 21.5533 85.7178 21.18C85.9311 20.8 86.2211 20.51 86.5878 20.31C86.9611 20.1033 87.3845 20 87.8578 20C88.3245 20 88.7178 20.09 89.0378 20.27C89.3645 20.4433 89.6178 20.6733 89.7978 20.96C89.9845 21.24 90.1011 21.5367 90.1478 21.85L89.5578 21.97C89.5245 21.71 89.4411 21.4733 89.3078 21.26C89.1745 21.04 88.9878 20.8667 88.7478 20.74C88.5078 20.6067 88.2111 20.54 87.8578 20.54C87.5045 20.54 87.1878 20.6233 86.9078 20.79C86.6278 20.95 86.4045 21.18 86.2378 21.48C86.0778 21.7733 85.9978 22.1233 85.9978 22.53V22.61C85.9978 23.0167 86.0778 23.37 86.2378 23.67C86.4045 23.9633 86.6278 24.1933 86.9078 24.36C87.1878 24.52 87.5045 24.6 87.8578 24.6C88.3911 24.6 88.7978 24.4633 89.0778 24.19C89.3578 23.91 89.5311 23.57 89.5978 23.17L90.1878 23.29C90.1278 23.6033 90.0011 23.9033 89.8078 24.19C89.6211 24.47 89.3645 24.7 89.0378 24.88C88.7178 25.0533 88.3245 25.14 87.8578 25.14ZM91.6632 25V18H92.2632V20.99H92.3832C92.4632 20.83 92.5732 20.68 92.7132 20.54C92.8598 20.3933 93.0465 20.2767 93.2732 20.19C93.5065 20.0967 93.7965 20.05 94.1432 20.05C94.4965 20.05 94.8198 20.1233 95.1132 20.27C95.4065 20.4167 95.6398 20.6367 95.8132 20.93C95.9932 21.2233 96.0832 21.5933 96.0832 22.04V25H95.4832V22.08C95.4832 21.5467 95.3498 21.1667 95.0832 20.94C94.8165 20.7067 94.4598 20.59 94.0132 20.59C93.5132 20.59 93.0965 20.7533 92.7632 21.08C92.4298 21.4067 92.2632 21.9033 92.2632 22.57V25H91.6632Z" fill="#2B6CA3"/>
<defs>
<filter id="filter0_d_86_39" x="0" y="0" width="112" height="44" filterUnits="userSpaceOnUse" color-interpolation-filters="sRGB">
<feFlood flood-opacity="0" result="BackgroundImageFix"/>
<feColorMatrix in="SourceAlpha" type="matrix" values="0 0 0 0 0 0 0 0 0 0 0 0 0 0 0 0 0 0 127 0" result="hardAlpha"/>
<feOffset/>
<feGaussianBlur stdDeviation="5"/>
<feComposite in2="hardAlpha" operator="out"/>
<feColorMatrix type="matrix" values="0 0 0 0 0 0 0 0 0 0 0 0 0 0 0 0 0 0 0.1 0"/>
<feBlend mode="normal" in2="BackgroundImageFix" result="effect1_dropShadow_86_39"/>
<feBlend mode="normal" in="SourceGraphic" in2="effect1_dropShadow_86_39" result="shape"/>
</filter>
<filter id="filter1_d_86_39" x="4" y="4" width="52.1626" height="36.129" filterUnits="userSpaceOnUse" color-interpolation-filters="sRGB">
<feFlood flood-opacity="0" result="BackgroundImageFix"/>
<feColorMatrix in="SourceAlpha" type="matrix" values="0 0 0 0 0 0 0 0 0 0 0 0 0 0 0 0 0 0 127 0" result="hardAlpha"/>
<feOffset/>
<feGaussianBlur stdDeviation="5"/>
<feComposite in2="hardAlpha" operator="out"/>
<feColorMatrix type="matrix" values="0 0 0 0 0 0 0 0 0 0 0 0 0 0 0 0 0 0 0.1 0"/>
<feBlend mode="normal" in2="BackgroundImageFix" result="effect1_dropShadow_86_39"/>
<feBlend mode="normal" in="SourceGraphic" in2="effect1_dropShadow_86_39" result="shape"/>
</filter>
</defs>
</svg>
